# xmcd CD database file
# Copyright (C) 1995-1998 Ti Kan
#
# Track frame offsets:
#	182
#	38982
#	55915
#	71022
#	90007
#	117832
#	133940
#	145807
#	170182
#	189255
#	207832
#	231532
#	249907
#	272107
#
# Disc length: 3948 seconds
#
# Revision: 1
# Processed by: cddbd v1.4PL0 Copyright (c) Steve Scherf et al.
# Submitted via: CDex 1.30
#
DISCID=cc0f6a0e
DTITLE=Muddy Puddles - Down by the Riverside
DYEAR=1996
DGENRE=Blues
TTITLE0=Statesboro Blues
TTITLE1=Hokum Blues
TTITLE2=Bad Day Blues
TTITLE3=C.C. Rider
TTITLE4=Deathletter Blues
TTITLE5=John Hardy
TTITLE6=Changing Blues
TTITLE7=Mam Don't Allow
TTITLE8=Down by the Riverside
TTITLE9=So Much to say
TTITLE10=Heaven Sittin Down
TTITLE11=This is Hip
TTITLE12=No Way to get Along
TTITLE13=Aint no Tellin - Freight Train
EXTD=YEAR: 1996  ID3G:   0
EXTT0=
EXTT1=
EXTT2=
EXTT3=
EXTT4=
EXTT5=
EXTT6=
EXTT7=
EXTT8=
EXTT9=
EXTT10=
EXTT11=
EXTT12=
EXTT13=
PLAYORDER=
